<svg version="1.1" xmlns="http://www.w3.org/2000/svg" width="64" height="32" viewBox="0 0 64 32">
<path d="M16.727 13.697c0.048 2.093 1.343 3.872 3.169 4.626l0.034 0.012c-0.422 1.249-0.987 2.333-1.691 3.31l0.025-0.037c-0.987 1.397-2.012 2.787-3.62 2.812s-2.095-0.89-3.908-0.89-2.377 0.884-3.844 0.935-2.742-1.512-3.735-2.902c-2.031-2.844-3.581-8.040-1.499-11.531 1.009-1.696 2.815-2.825 4.888-2.87l0.006-0c1.525 0 2.972 0.993 3.901 0.993s2.659-1.281 4.504-1.089c1.773 0.058 3.33 0.933 4.314 2.259l0.011 0.015c-1.513 0.896-2.521 2.504-2.562 4.35l-0 0.006zM13.748 5.183c0.772-0.869 1.244-2.019 1.244-3.28 0-0.133-0.005-0.265-0.016-0.395l0.001 0.017c-1.389 0.13-2.607 0.771-3.481 1.732l-0.004 0.004c-0.799 0.841-1.291 1.982-1.291 3.237 0 0.108 0.004 0.215 0.011 0.32l-0.001-0.014c0.024 0 0.052 0.001 0.080 0.001 1.378 0 2.61-0.628 3.424-1.614l0.006-0.008zM25.702 3.53q0.916-0.154 2.024-0.275c0.696-0.078 1.502-0.122 2.319-0.122 0.041 0 0.081 0 0.122 0l-0.006-0c0.063-0.001 0.137-0.002 0.211-0.002 1.092 0 2.146 0.165 3.138 0.471l-0.075-0.020c0.878 0.27 1.635 0.71 2.266 1.286l-0.005-0.004c0.498 0.489 0.899 1.075 1.172 1.727l0.013 0.035c0.272 0.663 0.43 1.433 0.43 2.24 0 0.039-0 0.078-0.001 0.117l0-0.006c0.001 0.041 0.002 0.090 0.002 0.139 0 0.97-0.215 1.889-0.601 2.713l0.017-0.039c-0.39 0.805-0.928 1.48-1.585 2.016l-0.011 0.008c-0.678 0.543-1.48 0.963-2.355 1.212l-0.048 0.012c-0.882 0.256-1.895 0.404-2.943 0.404-0.033 0-0.066-0-0.098-0l0.005 0c-0.058 0.001-0.126 0.002-0.194 0.002-0.815 0-1.612-0.080-2.382-0.232l0.078 0.013v8.905h-1.493zM27.195 13.921c0.348 0.101 0.758 0.178 1.179 0.216l0.025 0.002q0.641 0.064 1.422 0.064c0.132 0.009 0.287 0.015 0.443 0.015 1.493 0 2.873-0.486 3.99-1.309l-0.019 0.013c0.971-0.858 1.58-2.106 1.58-3.496 0-0.109-0.004-0.217-0.011-0.324l0.001 0.014c0.001-0.034 0.001-0.074 0.001-0.115 0-0.718-0.151-1.401-0.424-2.019l0.013 0.032c-0.271-0.593-0.669-1.086-1.163-1.46l-0.009-0.007c-0.513-0.39-1.116-0.696-1.769-0.881l-0.038-0.009c-0.667-0.187-1.432-0.295-2.223-0.295-0.029 0-0.059 0-0.088 0l0.004-0c-0.039-0-0.086-0.001-0.132-0.001-0.567 0-1.128 0.028-1.68 0.083l0.070-0.006q-0.73 0.077-1.172 0.173zM49.149 20.59q0 0.897 0 1.794c0.022 0.627 0.091 1.222 0.204 1.802l-0.012-0.072h-1.365l-0.224-2.101h-0.064c-0.219 0.33-0.457 0.617-0.723 0.877l-0.001 0.001c-0.302 0.292-0.638 0.553-1 0.774l-0.025 0.014c-0.383 0.232-0.826 0.427-1.294 0.561l-0.039 0.009c-0.473 0.138-1.017 0.218-1.579 0.218-0.017 0-0.034-0-0.050-0l0.003 0c-0.025 0-0.055 0.001-0.084 0.001-0.662 0-1.293-0.13-1.871-0.365l0.033 0.012c-0.539-0.221-0.997-0.536-1.376-0.928l-0.001-0.001c-0.346-0.366-0.62-0.803-0.799-1.287l-0.008-0.026c-0.169-0.442-0.267-0.952-0.269-1.485v-0.001c-0.001-0.040-0.002-0.087-0.002-0.134 0-1.665 0.901-3.12 2.242-3.903l0.021-0.012q2.261-1.422 6.823-1.358v-0.416c-0.004-0.478-0.044-0.944-0.116-1.399l0.007 0.053c-0.082-0.538-0.255-1.021-0.504-1.455l0.011 0.020c-0.279-0.476-0.665-0.861-1.126-1.132l-0.015-0.008c-0.538-0.294-1.177-0.466-1.858-0.466-0.070 0-0.139 0.002-0.208 0.005l0.010-0c-1.379 0.008-2.659 0.423-3.728 1.13l0.025-0.016-0.468-1.089c0.599-0.414 1.293-0.747 2.038-0.961l0.050-0.012c0.665-0.187 1.429-0.295 2.217-0.295 0.011 0 0.022 0 0.033 0h-0.002c0.061-0.002 0.132-0.004 0.204-0.004 0.857 0 1.668 0.195 2.392 0.543l-0.033-0.014c0.638 0.326 1.165 0.786 1.561 1.345l0.009 0.013c0.366 0.533 0.636 1.161 0.77 1.839l0.005 0.032c0.13 0.618 0.204 1.328 0.205 2.056v0.001zM47.663 16.17c-0.152-0.004-0.331-0.006-0.51-0.006-0.707 0-1.406 0.035-2.095 0.103l0.087-0.007c-0.891 0.078-1.713 0.269-2.486 0.559l0.064-0.021c-0.727 0.267-1.343 0.686-1.836 1.22l-0.003 0.003c-0.456 0.531-0.734 1.226-0.734 1.987 0 0.052 0.001 0.103 0.004 0.154l-0-0.007c-0.006 0.071-0.010 0.153-0.010 0.236 0 0.825 0.356 1.568 0.924 2.081l0.002 0.002c0.551 0.462 1.269 0.743 2.051 0.743 0.002 0 0.003 0 0.005 0h-0c0.019 0 0.042 0 0.065 0 0.565 0 1.109-0.092 1.618-0.261l-0.036 0.010c0.489-0.152 0.915-0.37 1.293-0.649l-0.012 0.008c0.349-0.268 0.647-0.579 0.894-0.928l0.009-0.013c0.222-0.312 0.411-0.67 0.548-1.052l0.010-0.031c0.081-0.263 0.138-0.569 0.159-0.884l0.001-0.013zM52.064 9.277l3.844 9.648q0.314 0.801 0.602 1.653t0.506 1.563h0.064q0.224-0.679 0.506-1.531t0.641-1.749l3.607-9.609h1.589l-4.401 10.891q-0.641 1.73-1.281 3.139t-1.185 2.563c-0.409 0.774-0.813 1.426-1.255 2.048l0.038-0.056c-0.407 0.57-0.86 1.066-1.367 1.503l-0.011 0.009c-0.472 0.431-1.007 0.806-1.586 1.108l-0.041 0.020q-0.743 0.359-0.999 0.448l-0.506-1.204c0.514-0.222 0.935-0.437 1.342-0.673l-0.060 0.032c0.523-0.31 0.975-0.662 1.377-1.064l-0 0c0.455-0.447 0.875-0.926 1.258-1.435l0.023-0.032c0.467-0.638 0.876-1.366 1.192-2.142l0.025-0.068c0.087-0.186 0.154-0.401 0.19-0.627l0.002-0.014c-0.026-0.238-0.094-0.455-0.197-0.651l0.005 0.010-5.509-13.78z"></path>
</svg>
